<?xml version="1.0" encoding="UTF-8" standalone="no"?>
<svg viewBox="0 0 259.85355 284.16431" xmlns="http://www.w3.org/2000/svg" xmlns:xlink="http://www.w3.org/1999/xlink">
<defs>
<linearGradient id="linearGradient3625">
<stop offset="0" stop-color="#2e3436"/>
<stop offset="1" stop-color="#555753"/>
</linearGradient>
<linearGradient id="linearGradient2957">
<stop offset="0" stop-color="#babdb6"/>
<stop offset="1" stop-color="#eeeeec"/>
</linearGradient>
<linearGradient id="linearGradient2931">
<stop offset="0" stop-color="#d3d7cf"/>
<stop offset="1" stop-color="#d3d7cf"/>
</linearGradient>
<linearGradient gradientUnits="userSpaceOnUse" id="linearGradient2901" x1="117.00091" x2="323.04681" y1="363.00882" y2="503.64734">
<stop offset="0" stop-color="#2a2a2a"/>
<stop offset="1" stop-color="#838485"/>
</linearGradient>
<linearGradient gradientTransform="matrix(-.69364,.72032,0,1,-71.84007,-273.08322)" gradientUnits="userSpaceOnUse" id="linearGradient2909" x2="0" y1="919.15802" y2="754.50311">
<stop offset="0" stop-color="#2e3436"/>
<stop offset="1" stop-color="#808182"/>
</linearGradient>
<linearGradient gradientTransform="matrix(1,-.19519,0,1,-70.48652,-272.46283)" gradientUnits="userSpaceOnUse" id="linearGradient2985" x1="35" x2="256" y1="296.87677" y2="340.01279">
<stop offset="0" stop-color="#555753"/>
<stop offset="1" stop-color="#babdb6"/>
</linearGradient>
<linearGradient gradientUnits="userSpaceOnUse" id="linearGradient3050" x1="75.5" x2="82.0817" y1="304.73718" y2="344.73718">
<stop offset="0" stop-color="#babdb6"/>
<stop offset="1" stop-color="#d3d7cf"/>
</linearGradient>
<linearGradient gradientUnits="userSpaceOnUse" id="linearGradient3052" x1="91.5" x2="94.71009" y1="302.86218" y2="348.36218">
<stop offset="0" stop-color="#eeeeec"/>
<stop offset="1" stop-color="#888a85"/>
</linearGradient>
<linearGradient gradientUnits="userSpaceOnUse" id="linearGradient3469" x1="41.87744" x2="238.51348" y1="43.68887" y2="91.44622">
<stop offset="0" stop-color="#2e3436"/>
<stop offset="1" stop-color="#babdb6"/>
</linearGradient>
<linearGradient gradientUnits="userSpaceOnUse" id="linearGradient4415" x1="23.25" x2="20.1875" y1="61.85184" y2="78.97684">
<stop offset="0" stop-color="#888a85"/>
<stop offset="1" stop-color="#555753"/>
</linearGradient>
<linearGradient gradientUnits="userSpaceOnUse" id="linearGradient2963" x1="78.5" x2="314.65625" xlink:href="#linearGradient2957" y1="339.36218" y2="380.28125"/>
<linearGradient gradientTransform="matrix(1,-.19852,0,1.0171,.5,-28.41689)" gradientUnits="userSpaceOnUse" id="linearGradient2983" x1="79" x2="315.15625" xlink:href="#linearGradient2957" y1="351.36218" y2="392.28125"/>
<linearGradient gradientTransform="matrix(-.69364,.72032,0,1,-70.34007,-516.58322)" gradientUnits="userSpaceOnUse" id="linearGradient2989" x1="-478.38544" x2="-478.39554" xlink:href="#linearGradient2931" y1="919.15314" y2="754.50311"/>
<linearGradient gradientTransform="matrix(-.69364,.72032,0,1,.3125,-171.4375)" gradientUnits="userSpaceOnUse" id="linearGradient3489" x1="-478.38544" x2="-478.39554" xlink:href="#linearGradient2931" y1="919.15314" y2="754.50311"/>
<linearGradient gradientUnits="userSpaceOnUse" id="linearGradient3607" x1="126.24998" x2="140.95975" xlink:href="#linearGradient3625" y1="342.62903" y2="356.5065"/>
<linearGradient gradientUnits="userSpaceOnUse" id="linearGradient3615" x1="173.84007" x2="187.34007" xlink:href="#linearGradient3625" y1="353.56006" y2="372.97849"/>
<linearGradient gradientUnits="userSpaceOnUse" id="linearGradient3623" x1="224.84007" x2="242.34007" xlink:href="#linearGradient3625" y1="365.31006" y2="384.97849"/>
<linearGradient gradientUnits="userSpaceOnUse" id="linearGradient3631" x1="515.06219" x2="540.20819" xlink:href="#linearGradient3625" y1="344.01434" y2="360.68054"/>
</defs>
<g transform="translate(-71.84007,-290.39572)">
<path d="m74.54926,331.92139h248.49755v171.72593l-248.49755-6v-165.72593z" fill="url(#linearGradient2901)" transform="matrix(.97561,.21951,0,1,0,0)"/>
<path d="m259.5,114.5625-16.1875,15.1875v171.71875l16.1875-15.1875v-171.71875z" fill="url(#linearGradient2909)" transform="translate(71.84007,273.08322)"/>
<path d="m72.21875,326v22l242.4375,54.5625v-22l-242.4375-54.5625z" fill="url(#linearGradient2963)"/>
<path d="m331.65257,365.92697-16.1875,15.1875v22l16.1875-15.1875v-22z" fill="url(#linearGradient3489)"/>
<path d="m331.69362,387.15736-16.1875,15.1875v2l16.1875-15.1875v-2z" fill="#eeeeec"/>
<path d="m72.71875,348v2l242.4375,54.5625v-2l-242.4375-54.5625z" fill="#eeeeec"/>
<path d="m15.78125,38.1875-15.78125,14.59375 244.15625,55.03125 15.06066-14.64645-243.43566-54.97855z" fill="url(#linearGradient3469)" transform="translate(71.84007,273.08322)"/>
<path d="m73.21875,300.92609v22.37617l242.6875,7.86605-.25-22.87617-242.4375-7.36605z" fill="url(#linearGradient2983)"/>
<path d="m23.09375,17.3125-22.09375,10.46875 244.15625,7.375 14.65625-14.03125-236.71875-3.8125z" fill="url(#linearGradient2985)" transform="translate(71.84007,273.08322)"/>
<path d="m259.5,22.1875-14.6875,13.78125v22l14.6875-13.78125v-22z" fill="url(#linearGradient2989)" transform="translate(71.84007,273.08322)"/>
<path d="m72.71875,326v2l242.4375,54.5625v-2l-242.4375-54.5625z" fill="#fff"/>
<path d="m74.71875,299.5v2l242.1875,7.0625 .25-1.5-242.4375-7.5625z" fill="#fff"/>
<path d="m331.62592,365.7646-16.1875,15.1875v2l16.1875-15.1875v-2z" fill="#fff"/>
<path d="m331,293.75-13.84375,13.3125v2l13.84375-13.3125v-2z" fill="#fff"/>
<path d="m510.80396,339.64962h29l-2.00797,21.71248h-29l2.00797-21.71248z" fill="url(#linearGradient3631)" transform="matrix(.97574,.21892,-.63218,.77482,0,0)"/>
<path d="m224.94441,362.24593 28.29652,6.34879-15.68538,16.38377-28.29652-6.34879 15.68538-16.38377z" fill="url(#linearGradient3623)"/>
<path d="m171.94441,350.24593 28.29652,6.34879-15.68538,16.38377-28.29652-6.34879 15.68538-16.38377z" fill="url(#linearGradient3615)"/>
<path d="m119.94441,338.24593 28.29652,6.34879-15.68538,16.38377-28.29652-6.34879 15.68538-16.38377z" fill="url(#linearGradient3607)"/>
<g transform="matrix(-.97168,-.23631,-.23631,.97168,491.09772,45.49988)">
<path d="m283.69441,334.99593 28.29652,6.34879-15.68538,16.38377-28.29652-6.34879 15.68538-16.38377z" fill="#2e3436"/>
<path d="m224.94441,322.24593 28.29652,6.34879-15.68538,16.38377-28.29652-6.34879 15.68538-16.38377z" fill="#2e3436"/>
<path d="m171.80598,310.81513 28.29652,6.34879-15.68538,16.38377-28.29652-6.34879 15.68538-16.38377z" fill="#2e3436"/>
<path d="m119.94441,300.24593 28.29652,6.34879-15.68538,16.38377-28.29652-6.34879 15.68538-16.38377z" fill="#2e3436"/>
</g>
<path d="m92.8765,301.97039 2.47487.35356 .88388,21.03643-2.12132.35355-1.23744-21.74354z" fill="#888a85"/>
<path d="m22.25,59.47684 .78395-1.65825 1.61702.43107-.65097,1.85217-.01785.8745-.23215,11.3755c-1.15559,3.81331-4.625,5.625-7.375,6.625l4-4 2.25-4.5-.375-11z" fill="url(#linearGradient4415)" transform="translate(71.84007,273.08322)"/>
<path d="m84.8317,297.17215a9.87839,9.87839 0 0,1 9.87839,9.87839v35.39756a9.87839,9.87839 0 0,1 -9.87839,9.87839 9.87839,9.87839 0 0,1 -9.87839-9.87839v-35.39756a9.87839,9.87839 0 0,1 9.87839-9.87839" fill="url(#linearGradient3052)"/>
<path d="m82.0817,297.67215a9.87839,9.87839 0 0,1 9.87839,9.87839v35.39756a9.87839,9.87839 0 0,1 -9.87839,9.87839 9.87839,9.87839 0 0,1 -9.87839-9.87839v-35.39756a9.87839,9.87839 0 0,1 9.87839-9.87839" fill="url(#linearGradient3050)"/>
<path d="m88.7419,309.19296c0,2.92893-2.37437,5.3033-5.3033,5.3033s-5.3033-2.37437-5.3033-5.3033 2.37437-5.3033 5.3033-5.3033 5.3033,2.37437 5.3033,5.3033z" fill="#c8cbc4" transform="matrix(1.23333,0,0,1.23333,-20.70644,-69.49337)"/>
<path d="m82.0625,305.3125c-3.61235,0-6.53125,2.9189-6.53125,6.53125s2.9189,6.53125 6.53125,6.53125c.39736,0 .80968-.0259 1.1875-.0937-3.04205-.56127-5.34375-3.23304-5.34375-6.4375s2.3017-5.87623 5.34375-6.4375c-.37782-.0679-.79014-.0937-1.1875-.0937z" fill="#eeeeec"/>
<path d="m88.7419,309.19296c0,2.92893-2.37437,5.3033-5.3033,5.3033s-5.3033-2.37437-5.3033-5.3033 2.37437-5.3033 5.3033-5.3033 5.3033,2.37437 5.3033,5.3033z" fill="#c8cbc4" transform="matrix(1.23333,0,0,1.23333,-20.70644,-41.49337)"/>
<path d="m82.0625,333.3125c-3.61235,0-6.53125,2.9189-6.53125,6.53125s2.9189,6.53125 6.53125,6.53125c.39736,0 .80968-.0259 1.1875-.0937-3.04205-.56127-5.34375-3.23304-5.34375-6.4375s2.3017-5.87623 5.34375-6.4375c-.37782-.0679-.79014-.0937-1.1875-.0937z" fill="#eeeeec"/>
<path d="m194.13068,253.08765a.35355,.35355 0 0,1 .35355.35355v9.36917a.35355,.35355 0 0,1 -.35355.35355 .35355,.35355 0 0,1 -.35355-.35355v-9.36917a.35355,.35355 0 0,1 .35355-.35355" fill="#eeeeec" transform="rotate(22.03932)"/>
<path d="m-18.72114,344.5889a.35355,.35355 0 0,1 .35355.35355v9.36917a.35355,.35355 0 0,1 -.35355.35355 .35355,.35355 0 0,1 -.35355-.35355v-9.36917a.35355,.35355 0 0,1 .35355-.35355" fill="#eeeeec" transform="matrix(.95706,-.2899,.2899,.95706,0,0)"/>
<path d="m196.65378,423.92642-3-1.03302v70.11585l3,1.03301v-70.11584z" fill="#d3d7cf"/>
<g fill="#fff" font-family="Yanone Kaffeesatz" font-size="22" font-style="italic" letter-spacing="0" transform="matrix(1,.24438,0,1,67.37991,132.57853)" word-spacing="0">
<path d="m27.946,245.65888c4.16596-.73319.97935-7.45774 6.43884-7.00784 6.25548-2.99217-.49567-12.94697-3.79694-6.48784-.77856,4.51661-1.76571,8.99668-2.6419,13.49568zm6.864-11.242c-1.08524,5.55419-4.97257,1.82473-2.60848-1.82948 .8724-2.12766 3.78649.20047 2.60848,1.82948z"/>
<path d="m35.85225,245.65888c3.78632.54391 2.19362-11.06307 4.96572-3.47614-.88428,4.68516 3.09635,3.65823 1.3427.0213 1.61249-4.03741 5.01803-15.05963-3.31497-11.049-1.18307,4.70375-1.94152,9.68667-2.99344,14.50387zm6.842-11.132c-1.71836,7.3358-5.76774-1.56607-1.11081-2.72062 1.22327.19985 1.6225,1.72511 1.11081,2.72062z"/>
<path d="m45.20638,237.87088c-4.49103,6.33305 6.28344,11.689 7.51244,3.19167 4.85622-6.46773-3.37091-16.19735-6.70376-6.36733-.34445,1.03806-.58081,2.10735-.80868,3.17566zm1.914.44c-1.22124-4.62101 6.60431-9.26967 4.80425-1.70953 .62543,4.63069-6.38054,10.65718-4.99346,2.74731l.18921-1.03778z"/>
<path d="m57.03653,230.25888c-2.01728,3.39148-1.81947,7.69984-2.89547,11.50165-2.71112,4.76588 2.82113,5.20974 5.42484,1.86825 2.8873-3.61074 5.90747-15.11511-2.52936-13.3699zm3.058,6.732c.98016,5.09225-6.92009,9.65426-3.62279,2.00607l1.42279-7.08807c3.28729-.7764 2.682,3.20818 2.2,5.082z"/>
<path d="m66.90525,230.25888c-4.19533,1.73864-3.28077,9.71794-4.00635,13.87903 5.27612,5.89965 8.58345-2.62168 8.57253-7.45944-.13928-1.92696 2.85509-7.46947-.4201-5.9793-1.23408,4.2331-1.82211,8.76015-2.80408,13.13371-6.49981,1.23023-2.06913-7.54291-1.77731-11.40615l.43531-2.16785z"/>
<path d="m78.81825,229.97288c-6.65881.84492-9.9717,17.31201-1.8321,15.3658 2.47176-3.16461-4.5379-.38626-2.7763-4.72459-1.07333-4.6141 5.20259-8.71726 5.65254-10.51728l-1.04414-.12393z"/>
<path d="m88.53881,231.93088c2.06533-4.003-12.48698-.94415-4.79378.46318-.40553,4.42036-1.68915,8.83235-2.44422,13.26482 3.96372-1.11595 2.46831-7.21642 3.9183-10.66954 .44824-2.65355.14323-3.56462 3.3197-3.05846z"/>
<path d="m87.28584,245.65888c3.93261-.90043 2.44027-6.96944 3.86005-10.28771 1.11335-2.63198 1.0807-8.04024-1.37161-2.74064-.56745,4.37297-1.70429,8.67431-2.48843,13.02835z"/>
<path d="m92.25716,237.87088c-4.49103,6.33305 6.28344,11.689 7.51244,3.19167 4.85623-6.46773-3.37092-16.19735-6.70377-6.36733-.34445,1.03806-.58081,2.10735-.80868,3.17566zm1.914.44c-1.22124-4.62101 6.6043-9.26967 4.80425-1.70953 .62543,4.63069-6.38054,10.65718-4.99346,2.74731l.18921-1.03778z"/>
<path d="m106.55131,245.65888c3.68185-.73214 2.29018-6.47899 3.6188-9.5226 .31608-2.01583 2.45038-8.50441-1.02109-4.47138-.56294,2.04177-1.17875,10.64926-2.08932,9.17804-.0133-2.95417-1.79979-15.23698-4.16826-7.8761-.72182,4.23632-1.69495,8.45562-2.50013,12.69204 4.39559.0231 2.25186-11.80895 4.31159-10.52945 .18409,3.57514 1.13669,7.03801 1.84841,10.52945z"/>
</g>
<g fill="#fff" font-family="Yanone Kaffeesatz" font-size="16" font-style="italic" letter-spacing="0" transform="matrix(1,.24438,0,1,64.6624,208.7501)" word-spacing="0">
<path d="m28.824,237.38303c-1.21037,3.55365 4.5631,1.87482 1.42528.0706-.49527-4.24777 3.34737-4.50436 1.25884-7.87088-1.69968-1.36243-2.1543,5.08688-2.68412,7.80025z"/>
<path d="m33.59225,232.32703c4.26035.759 3.07154,2.50379-.32576,3.20539-2.60951,5.80395 5.34382,5.2284 4.46363-.16818 1.05927-3.51294-1.13514-5.31123-4.13787-3.03721zm2.576,3.504c.14877,7.29746-5.40854-.45751 0,0z"/>
<path d="m38.0485,239.60703c1.91252-1.04096 3.61786-6.47247 3.68572-.57256 3.03783.39894-.19674-4.69042 2.30858-6.29894-2.50947-1.57908-2.78726-1.50254-2.92036-4.47623-2.01617,1.68143-1.51212,5.55617-2.43759,8.17511l-.63634,3.17262zm4.496-6.336c-1.66719,4.82605-3.60449-1.26593 0,0z"/>
<path d="m48.24125,231.44703c-6.03329-.86373-3.83258,12.65499.512,6.56-3.90823,2.38813-3.06022-3.77903.416-1.904 .47989-1.35852 1.66454-4.65686-.928-4.656zm-.368,1.136c3.24492,3.64972-6.08819,3.49259 0,0z"/>
</g>
<g fill="#fff" font-family="Yanone Kaffeesatz" font-size="18" font-style="italic" letter-spacing="0" transform="matrix(1,.24438,0,1,64.17281,234.959)" word-spacing="0">
<path d="m33.966,233.25431c-7.93678-4.47738-4.48951,12.66652-2.99739,7.0963-3.37377-1.03242.31861-7.9376 2.99739-7.0963z"/>
<path d="m34.803,233.43431c4.42003.61938 3.92199,2.94214-.06857,3.37613-4.17237,5.44909 5.26105,7.20031 4.43127,1.04391 1.38982-3.58409-.03027-7.81162-4.36271-4.42004zm2.898,3.942c-.36254,7.37224-5.54219-.73357 0,0z"/>
<path d="m43.38028,241.62431c3.26808.0699 2.01955-10.82844 4.73131-6.22317-.96017,2.52828-1.10302,9.35074 1.02661,3.32478 4.28174-6.05258-6.53991-9.3157-8.06824-3.39641 .11085,1.72709-2.69557,7.67594.26608,5.49927-.03443-2.17699 2.71143-10.55406 3.15217-4.49097-.18156,1.80273-.83614,3.49917-1.10793,5.2865z"/>
<path d="m54.69328,232.44431c-6.27242-.44857-5.10559,13.37554.40666,8.09747-8.23711-1.68008 3.35145-1.90542 1.32097-6.81957l-.62165-.84415-1.10598-.43375zm-.414,1.278c3.43253,4.45447-5.87511,2.82423 0,0z"/>
<path d="m56.42719,241.62431c3.56303-1.32562 1.53662-7.58805 4.95426-8.90619-5.11358-1.13277-3.67001,6.01372-4.95426,8.90619z"/>
<path d="m62.54128,233.43431c4.42003.61938 3.92199,2.94214-.06857,3.37613-4.17237,5.44909 5.26105,7.20031 4.43127,1.04391 1.25878-3.77684.23589-7.69024-4.36271-4.42004zm2.898,3.942c-.36254,7.37224-5.54219-.73357 0,0z"/>
</g>
<path d="m72.91976,394.88478v2.43305l241.91193,54.43961v-2.43306l-241.91193-54.4396z" fill="#babdb6"/>
<g fill="#fff" font-family="Yanone Kaffeesatz" font-size="18" font-style="italic" letter-spacing="0" transform="matrix(1,.24438,0,1,173.09238,192.97371)" word-spacing="0">
<path d="m31.914,240.22031c-6.28439-.0746 3.4278-11.0388.48394-2.44074l-.48394,2.44074zm1.476-7.416c-8.41771-2.33776-4.3024,15.81866.22434,6.16816l2.11563-10.57816c-2.54893-.44439-1.60589,3.09722-2.33998,4.41z"/>
<path d="m36.13894,233.43431c4.42004.61929 3.92215,2.94206-.06857,3.37613-4.17236,5.44911 5.26106,7.20029 4.43128,1.04388 1.38986-3.58411-.03028-7.81155-4.36272-4.42001zm2.898,3.942c-.36239,7.37198-5.54231-.73331 0,0z"/>
<path d="m42.05981,239.12231c-1.44003,3.97811 5.16781,2.11302 1.60641.15636-.64212-4.59898 3.79291-5.11039 1.36125-8.88332-.31265-2.46604-3.53604,3.90157-2.23751,5.56279-.27421,1.0481-.7435,2.0528-.73015,3.16417z"/>
<path d="m50.40422,232.44431c-6.27242-.44857-5.10559,13.37554.40666,8.09747-8.23711-1.68008 3.35145-1.90542 1.32097-6.81957l-.62165-.84415-1.10598-.43375zm-.414,1.278c3.43253,4.45447-5.87511,2.82423 0,0z"/>
</g>
<g fill="#fff" font-family="Yanone Kaffeesatz" font-size="16" font-style="italic" letter-spacing="0" transform="matrix(1,.24438,0,1,65.87991,170.07853)" word-spacing="0">
<path d="m31.736,231.44703c-6.68298-1.02543 2.68356,8.68105-3.744,6.752 1.53766,4.88367 7.28198-3.21183 2.42167-4.66183 .58147-1.39944 5.37701-1.09873 1.32233-2.09017z"/>
<path d="m38.72325,232.16703c-7.16215-3.91491-3.79451,11.16808-2.69552,6.37286-3.07283-.66967.3729-7.38057 2.69552-6.37286z"/>
<path d="m42.24125,231.44703c-6.03329-.86373-3.83258,12.65499.512,6.56-3.90823,2.38813-3.06022-3.77903.416-1.904 .47989-1.35852 1.66454-4.65686-.928-4.656zm-.368,1.136c3.24492,3.64972-6.08819,3.49259 0,0z"/>
<path d="m43.7825,239.60703c2.67706-.63475 2.61357-11.06316 4.44064-4.53618-1.84083,3.12089-.17336,6.54511 1.03524,1.76061 2.82947-4.66239-3.60123-8.02696-4.66522-2.14823-.37902,1.63021-.36804,3.29818-.81067,4.9238z"/>
<path d="m54.1475,231.44703c-6.03329-.86373-3.83258,12.65499.512,6.56-3.90823,2.38813-3.06022-3.77903.416-1.904 .47989-1.35852 1.66454-4.65686-.928-4.656zm-.368,1.136c3.24492,3.64972-6.08819,3.49259 0,0z"/>
</g>
<g fill="#fff" font-family="Yanone Kaffeesatz" font-size="18" font-style="italic" letter-spacing="0" transform="matrix(1,.24438,0,1,173.09238,224.97371)" word-spacing="0">
<path d="m31.914,240.22031c-6.28439-.0746 3.4278-11.0388.48394-2.44074l-.48394,2.44074zm1.476-7.416c-8.41771-2.33776-4.3024,15.81866.22434,6.16816l2.11563-10.57816c-2.54893-.44439-1.60589,3.09722-2.33998,4.41z"/>
<path d="m38.08294,232.62431c-3.78415.53444-3.38764,14.0264-.88863,5.55083-.06459-1.87789.61018-3.70302.88863-5.55083zm-.9-2.862c1.24187,3.86507 2.16737-3.78367 0,0z"/>
<path d="m37.935,241.62431c3.56103-1.32832 1.54164-7.59041 4.95273-8.90737-5.11211-1.12917-3.66816,6.01557-4.95273,8.90737z"/>
<path d="m47.06437,232.44431c-6.27242-.44857-5.10559,13.37554.40666,8.09747-8.23711-1.68008 3.35145-1.90542 1.32097-6.81957l-.62165-.84415-1.10598-.43375zm-.414,1.278c3.43253,4.45447-5.87511,2.82423 0,0z"/>
<path d="m54.95428,233.25431c-7.93678-4.47738-4.48951,12.66652-2.99739,7.0963-3.37377-1.03242.31861-7.9376 2.99739-7.0963z"/>
<path d="m55.77075,239.12231c-1.44003,3.97812 5.16781,2.11302 1.60641.15636-.64212-4.59898 3.79291-5.11039 1.36125-8.88332-.31265-2.46604-3.53603,3.90157-2.23751,5.56279-.27421,1.0481-.7435,2.0528-.73015,3.16417z"/>
<path d="m59.97263,237.12431c-2.04074,10.52258 12.35615-2.03657 3.91443-4.72518-2.08751.43111-4.06087,2.50867-3.91443,4.72518zm1.584.036c1.90471-8.62593 4.84637,5.06948-.20542,2.87845-.2611-.94945.07393-1.93907.20542-2.87845z"/>
<path d="m66.06,241.62431c3.56103-1.32832 1.54164-7.59041 4.95273-8.90737-5.11211-1.12917-3.66816,6.01557-4.95273,8.90737z"/>
</g>
<path d="m72.91976,462.88478v2.41793l242.61903,58.10117v-2.41793l-242.61903-58.10117z" fill="#d3d7cf"/>
<path d="m314.2288,380.50902 1.4855-.50508v193.91552l-1.4855-1.51523v-191.89521z" fill="#eeeeec"/>
<path d="m72.91976,428.88478v2.43305l241.91193,54.43961v-2.43306l-241.91193-54.4396z" fill="#babdb6"/>
</g>
</svg>
